<?xml version="1.0" encoding="utf-8"?>
<svg width="700pt" height="700pt" version="1.1" viewBox="97.246 20.15 505.923 517.742" xmlns="http://www.w3.org/2000/svg">
 <defs>
  <symbol id="v" overflow="visible">
   <path d="m18.766-1.125c-0.96875 0.5-1.9805 0.875-3.0312 1.125-1.043 0.25781-2.1367 0.39062-3.2812 0.39062-3.3984 0-6.0898-0.94531-8.0781-2.8438-1.9922-1.9062-2.9844-4.4844-2.9844-7.7344 0-3.2578 0.99219-5.8359 2.9844-7.7344 1.9883-1.9062 4.6797-2.8594 8.0781-2.8594 1.1445 0 2.2383 0.13281 3.2812 0.39062 1.0508 0.25 2.0625 0.625 3.0312 1.125v4.2188c-0.98047-0.65625-1.9453-1.1406-2.8906-1.4531-0.94922-0.3125-1.9492-0.46875-3-0.46875-1.875 0-3.3516 0.60547-4.4219 1.8125-1.0742 1.1992-1.6094 2.8555-1.6094 4.9688 0 2.1055 0.53516 3.7617 1.6094 4.9688 1.0703 1.1992 2.5469 1.7969 4.4219 1.7969 1.0508 0 2.0508-0.14844 3-0.45312 0.94531-0.3125 1.9102-0.80078 2.8906-1.4688z"/>
  </symbol>
  <symbol id="d" overflow="visible">
   <path d="m13.734-11.141c-0.4375-0.19531-0.87109-0.34375-1.2969-0.4375-0.41797-0.10156-0.83984-0.15625-1.2656-0.15625-1.2617 0-2.2305 0.40625-2.9062 1.2188-0.67969 0.80469-1.0156 1.9531-1.0156 3.4531v7.0625h-4.8906v-15.312h4.8906v2.5156c0.625-1 1.3438-1.7266 2.1562-2.1875 0.82031-0.46875 1.8008-0.70312 2.9375-0.70312 0.16406 0 0.34375 0.011719 0.53125 0.03125 0.19531 0.011719 0.47656 0.039062 0.84375 0.078125z"/>
  </symbol>
  <symbol id="a" overflow="visible">
   <path d="m17.641-7.7031v1.4062h-11.453c0.125 1.1484 0.53906 2.0078 1.25 2.5781 0.70703 0.57422 1.7031 0.85938 2.9844 0.85938 1.0312 0 2.082-0.14844 3.1562-0.45312 1.082-0.3125 2.1914-0.77344 3.3281-1.3906v3.7656c-1.1562 0.4375-2.3125 0.76562-3.4688 0.98438-1.1562 0.22656-2.3125 0.34375-3.4688 0.34375-2.7734 0-4.9297-0.70312-6.4688-2.1094-1.5312-1.4062-2.2969-3.3789-2.2969-5.9219 0-2.5 0.75391-4.4609 2.2656-5.8906 1.5078-1.4375 3.582-2.1562 6.2188-2.1562 2.4062 0 4.332 0.73047 5.7812 2.1875 1.4453 1.4492 2.1719 3.3828 2.1719 5.7969zm-5.0312-1.625c0-0.92578-0.27344-1.6719-0.8125-2.2344-0.54297-0.57031-1.25-0.85938-2.125-0.85938-0.94922 0-1.7188 0.26562-2.3125 0.79688s-0.96484 1.2969-1.1094 2.2969z"/>
  </symbol>
  <symbol id="g" overflow="visible">
   <path d="m9.2188-6.8906c-1.0234 0-1.793 0.17188-2.3125 0.51562-0.51172 0.34375-0.76562 0.85547-0.76562 1.5312 0 0.625 0.20703 1.1172 0.625 1.4688 0.41406 0.34375 0.98828 0.51562 1.7188 0.51562 0.92578 0 1.7031-0.32812 2.3281-0.98438 0.63281-0.66406 0.95312-1.4922 0.95312-2.4844v-0.5625zm7.4688-1.8438v8.7344h-4.9219v-2.2656c-0.65625 0.92969-1.3984 1.6055-2.2188 2.0312-0.82422 0.41406-1.8242 0.625-3 0.625-1.5859 0-2.8711-0.45703-3.8594-1.375-0.99219-0.92578-1.4844-2.1289-1.4844-3.6094 0-1.7891 0.61328-3.1016 1.8438-3.9375 1.2383-0.84375 3.1797-1.2656 5.8281-1.2656h2.8906v-0.39062c0-0.76953-0.30859-1.332-0.92188-1.6875-0.61719-0.36328-1.5703-0.54688-2.8594-0.54688-1.0547 0-2.0312 0.10547-2.9375 0.3125-0.89844 0.21094-1.7305 0.52344-2.5 0.9375v-3.7344c1.0391-0.25 2.0859-0.44141 3.1406-0.57812 1.0625-0.13281 2.125-0.20312 3.1875-0.20312 2.7578 0 4.75 0.54688 5.9688 1.6406 1.2266 1.0859 1.8438 2.8555 1.8438 5.3125z"/>
  </symbol>
  <symbol id="c" overflow="visible">
   <path d="m7.7031-19.656v4.3438h5.0469v3.5h-5.0469v6.5c0 0.71094 0.14062 1.1875 0.42188 1.4375s0.83594 0.375 1.6719 0.375h2.5156v3.5h-4.1875c-1.9375 0-3.3125-0.39844-4.125-1.2031-0.80469-0.8125-1.2031-2.1797-1.2031-4.1094v-6.5h-2.4219v-3.5h2.4219v-4.3438z"/>
  </symbol>
  <symbol id="f" overflow="visible">
   <path d="m12.766-13.078v-8.2031h4.9219v21.281h-4.9219v-2.2188c-0.66797 0.90625-1.4062 1.5703-2.2188 1.9844s-1.7578 0.625-2.8281 0.625c-1.8867 0-3.4336-0.75-4.6406-2.25-1.2109-1.5-1.8125-3.4258-1.8125-5.7812 0-2.3633 0.60156-4.2969 1.8125-5.7969 1.207-1.5 2.7539-2.25 4.6406-2.25 1.0625 0 2 0.21484 2.8125 0.64062 0.82031 0.42969 1.5664 1.0859 2.2344 1.9688zm-3.2188 9.9219c1.0391 0 1.8359-0.37891 2.3906-1.1406 0.55078-0.76953 0.82812-1.8828 0.82812-3.3438 0-1.457-0.27734-2.5664-0.82812-3.3281-0.55469-0.76953-1.3516-1.1562-2.3906-1.1562-1.043 0-1.8398 0.38672-2.3906 1.1562-0.55469 0.76172-0.82812 1.8711-0.82812 3.3281 0 1.4609 0.27344 2.5742 0.82812 3.3438 0.55078 0.76172 1.3477 1.1406 2.3906 1.1406z"/>
  </symbol>
  <symbol id="l" overflow="visible">
   <path d="m10.5-3.1562c1.0508 0 1.8516-0.37891 2.4062-1.1406 0.55078-0.76953 0.82812-1.8828 0.82812-3.3438 0-1.457-0.27734-2.5664-0.82812-3.3281-0.55469-0.76953-1.3555-1.1562-2.4062-1.1562-1.0547 0-1.8594 0.38672-2.4219 1.1562-0.55469 0.77344-0.82812 1.8828-0.82812 3.3281 0 1.4492 0.27344 2.5586 0.82812 3.3281 0.5625 0.77344 1.3672 1.1562 2.4219 1.1562zm-3.25-9.9219c0.67578-0.88281 1.4219-1.5391 2.2344-1.9688 0.82031-0.42578 1.7656-0.64062 2.8281-0.64062 1.8945 0 3.4453 0.75 4.6562 2.25 1.207 1.5 1.8125 3.4336 1.8125 5.7969 0 2.3555-0.60547 4.2812-1.8125 5.7812-1.2109 1.5-2.7617 2.25-4.6562 2.25-1.0625 0-2.0078-0.21094-2.8281-0.625-0.8125-0.42578-1.5586-1.0859-2.2344-1.9844v2.2188h-4.8906v-21.281h4.8906z"/>
  </symbol>
  <symbol id="k" overflow="visible">
   <path d="m0.34375-15.312h4.8906l4.125 10.391 3.5-10.391h4.8906l-6.4375 16.766c-0.64844 1.6953-1.4023 2.8828-2.2656 3.5625-0.86719 0.6875-2 1.0312-3.4062 1.0312h-2.8438v-3.2188h1.5312c0.83203 0 1.4375-0.13672 1.8125-0.40625 0.38281-0.26172 0.67969-0.73047 0.89062-1.4062l0.14062-0.42188z"/>
  </symbol>
  <symbol id="j" overflow="visible">
   <path d="m14.953-3.7188h-8.2188l-1.3125 3.7188h-5.2812l7.5625-20.406h6.2656l7.5625 20.406h-5.2812zm-6.9062-3.7812h5.5781l-2.7812-8.125z"/>
  </symbol>
  <symbol id="u" overflow="visible">
   <path d="m2.3594-15.312h4.8906v15.312h-4.8906zm0-5.9688h4.8906v4h-4.8906z"/>
  </symbol>
  <symbol id="e" overflow="visible">
   <path d="m17.75-9.3281v9.3281h-4.9219v-7.1406c0-1.3203-0.03125-2.2344-0.09375-2.7344s-0.16797-0.86719-0.3125-1.1094c-0.1875-0.3125-0.44922-0.55469-0.78125-0.73438-0.32422-0.17578-0.69531-0.26562-1.1094-0.26562-1.0234 0-1.8242 0.39844-2.4062 1.1875-0.58594 0.78125-0.875 1.8711-0.875 3.2656v7.5312h-4.8906v-15.312h4.8906v2.2344c0.73828-0.88281 1.5195-1.5391 2.3438-1.9688 0.83203-0.42578 1.75-0.64062 2.75-0.64062 1.7695 0 3.1133 0.54688 4.0312 1.6406 0.91406 1.0859 1.375 2.6562 1.375 4.7188z"/>
  </symbol>
  <symbol id="t" overflow="visible">
   <path d="m16.781-19.766v4.3125c-1.125-0.5-2.2266-0.875-3.2969-1.125-1.0625-0.25781-2.0703-0.39062-3.0156-0.39062-1.25 0-2.1797 0.17969-2.7812 0.53125-0.60547 0.34375-0.90625 0.88281-0.90625 1.6094 0 0.54297 0.20312 0.96875 0.60938 1.2812 0.40625 0.30469 1.1406 0.5625 2.2031 0.78125l2.25 0.45312c2.2695 0.44922 3.8789 1.1406 4.8281 2.0781 0.95703 0.92969 1.4375 2.2461 1.4375 3.9531 0 2.25-0.66797 3.9297-2 5.0312-1.3359 1.0938-3.3711 1.6406-6.1094 1.6406-1.3047 0-2.6055-0.125-3.9062-0.375-1.3047-0.23828-2.6055-0.59766-3.9062-1.0781v-4.4531c1.3008 0.69922 2.5625 1.2266 3.7812 1.5781 1.2188 0.34375 2.3906 0.51562 3.5156 0.51562 1.1562 0 2.0352-0.1875 2.6406-0.5625 0.61328-0.38281 0.92188-0.9375 0.92188-1.6562 0-0.63281-0.21094-1.125-0.625-1.4688-0.41797-0.34375-1.2461-0.65625-2.4844-0.9375l-2.0312-0.4375c-2.043-0.4375-3.5391-1.1328-4.4844-2.0938-0.9375-0.95703-1.4062-2.25-1.4062-3.875 0-2.0312 0.65625-3.5938 1.9688-4.6875s3.1953-1.6406 5.6562-1.6406c1.125 0 2.2734 0.085938 3.4531 0.25 1.1875 0.16797 2.4141 0.42188 3.6875 0.76562z"/>
  </symbol>
  <symbol id="b" overflow="visible">
   <path d="m9.6406-12.188c-1.0859 0-1.9141 0.39062-2.4844 1.1719-0.57422 0.78125-0.85938 1.9062-0.85938 3.375s0.28516 2.5938 0.85938 3.375c0.57031 0.77344 1.3984 1.1562 2.4844 1.1562 1.0625 0 1.875-0.38281 2.4375-1.1562 0.57031-0.78125 0.85938-1.9062 0.85938-3.375s-0.28906-2.5938-0.85938-3.375c-0.5625-0.78125-1.375-1.1719-2.4375-1.1719zm0-3.5c2.6328 0 4.6914 0.71484 6.1719 2.1406 1.4766 1.418 2.2188 3.3867 2.2188 5.9062 0 2.5117-0.74219 4.4805-2.2188 5.9062-1.4805 1.418-3.5391 2.125-6.1719 2.125-2.6484 0-4.7148-0.70703-6.2031-2.125-1.4922-1.4258-2.2344-3.3945-2.2344-5.9062 0-2.5195 0.74219-4.4883 2.2344-5.9062 1.4883-1.4258 3.5547-2.1406 6.2031-2.1406z"/>
  </symbol>
  <symbol id="i" overflow="visible">
   <path d="m17.75-9.3281v9.3281h-4.9219v-7.1094c0-1.3438-0.03125-2.2656-0.09375-2.7656s-0.16797-0.86719-0.3125-1.1094c-0.1875-0.3125-0.44922-0.55469-0.78125-0.73438-0.32422-0.17578-0.69531-0.26562-1.1094-0.26562-1.0234 0-1.8242 0.39844-2.4062 1.1875-0.58594 0.78125-0.875 1.8711-0.875 3.2656v7.5312h-4.8906v-21.281h4.8906v8.2031c0.73828-0.88281 1.5195-1.5391 2.3438-1.9688 0.83203-0.42578 1.75-0.64062 2.75-0.64062 1.7695 0 3.1133 0.54688 4.0312 1.6406 0.91406 1.0859 1.375 2.6562 1.375 4.7188z"/>
  </symbol>
  <symbol id="h" overflow="visible">
   <path d="m2.1875-5.9688v-9.3438h4.9219v1.5312c0 0.83594-0.007813 1.875-0.015625 3.125-0.011719 1.25-0.015625 2.0859-0.015625 2.5 0 1.2422 0.03125 2.1328 0.09375 2.6719 0.070313 0.54297 0.17969 0.93359 0.32812 1.1719 0.20703 0.32422 0.47266 0.57422 0.79688 0.75 0.32031 0.16797 0.69141 0.25 1.1094 0.25 1.0195 0 1.8203-0.39062 2.4062-1.1719 0.58203-0.78125 0.875-1.8672 0.875-3.2656v-7.5625h4.8906v15.312h-4.8906v-2.2188c-0.74219 0.89844-1.5234 1.5586-2.3438 1.9844-0.82422 0.41406-1.7344 0.625-2.7344 0.625-1.7617 0-3.1055-0.53906-4.0312-1.625-0.92969-1.082-1.3906-2.6602-1.3906-4.7344z"/>
  </symbol>
  <symbol id="s" overflow="visible">
   <path d="m14.312-14.828v3.7188c-1.043-0.4375-2.0547-0.76562-3.0312-0.98438-0.98047-0.21875-1.9023-0.32812-2.7656-0.32812-0.92969 0-1.6211 0.11719-2.0781 0.34375-0.44922 0.23047-0.67188 0.58984-0.67188 1.0781 0 0.38672 0.17188 0.68359 0.51562 0.89062 0.34375 0.21094 0.95703 0.36719 1.8438 0.46875l0.85938 0.125c2.5078 0.32422 4.1953 0.85156 5.0625 1.5781 0.86328 0.73047 1.2969 1.8711 1.2969 3.4219 0 1.6367-0.60547 2.8672-1.8125 3.6875-1.1992 0.8125-2.9922 1.2188-5.375 1.2188-1.0234 0-2.0742-0.078125-3.1562-0.23438-1.0742-0.15625-2.1797-0.39453-3.3125-0.71875v-3.7188c0.96875 0.48047 1.9609 0.83984 2.9844 1.0781 1.0312 0.23047 2.0781 0.34375 3.1406 0.34375 0.95703 0 1.6758-0.12891 2.1562-0.39062 0.47656-0.26953 0.71875-0.66406 0.71875-1.1875 0-0.4375-0.16797-0.75781-0.5-0.96875-0.33594-0.21875-0.99609-0.38281-1.9844-0.5l-0.85938-0.10938c-2.1797-0.26953-3.7031-0.77344-4.5781-1.5156-0.875-0.73828-1.3125-1.8594-1.3125-3.3594 0-1.625 0.55078-2.8281 1.6562-3.6094 1.1133-0.78906 2.8203-1.1875 5.125-1.1875 0.89453 0 1.8359 0.074219 2.8281 0.21875 1 0.13672 2.082 0.35156 3.25 0.64062z"/>
  </symbol>
  <symbol id="r" overflow="visible">
   <path d="m12.422-21.281v3.2188h-2.7031c-0.6875 0-1.1719 0.125-1.4531 0.375-0.27344 0.25-0.40625 0.6875-0.40625 1.3125v1.0625h4.1875v3.5h-4.1875v11.812h-4.8906v-11.812h-2.4375v-3.5h2.4375v-1.0625c0-1.6641 0.46094-2.8984 1.3906-3.7031 0.92578-0.80078 2.3672-1.2031 4.3281-1.2031z"/>
  </symbol>
  <symbol id="q" overflow="visible">
   <path d="m16.547-12.766c0.61328-0.94531 1.3477-1.6719 2.2031-2.1719 0.85156-0.5 1.7891-0.75 2.8125-0.75 1.7578 0 3.0977 0.54688 4.0156 1.6406 0.92578 1.0859 1.3906 2.6562 1.3906 4.7188v9.3281h-4.9219v-7.9844-0.35938c0.007813-0.13281 0.015625-0.32031 0.015625-0.5625 0-1.082-0.16406-1.8633-0.48438-2.3438-0.3125-0.48828-0.82422-0.73438-1.5312-0.73438-0.92969 0-1.6484 0.38672-2.1562 1.1562-0.51172 0.76172-0.77344 1.8672-0.78125 3.3125v7.5156h-4.9219v-7.9844c0-1.6953-0.14844-2.7852-0.4375-3.2656-0.29297-0.48828-0.8125-0.73438-1.5625-0.73438-0.9375 0-1.6641 0.38672-2.1719 1.1562-0.51172 0.76172-0.76562 1.8594-0.76562 3.2969v7.5312h-4.9219v-15.312h4.9219v2.2344c0.60156-0.86328 1.2891-1.5156 2.0625-1.9531 0.78125-0.4375 1.6406-0.65625 2.5781-0.65625 1.0625 0 2 0.25781 2.8125 0.76562 0.8125 0.51172 1.4258 1.2305 1.8438 2.1562z"/>
  </symbol>
  <symbol id="p" overflow="visible">
   <path d="m2.5781-20.406h5.875l7.4219 14v-14h4.9844v20.406h-5.875l-7.4219-14v14h-4.9844z"/>
  </symbol>
  <symbol id="o" overflow="visible">
   <path d="m2.5781-20.406h8.7344c2.5938 0 4.582 0.57812 5.9688 1.7344 1.3945 1.1484 2.0938 2.7891 2.0938 4.9219 0 2.1367-0.69922 3.7812-2.0938 4.9375-1.3867 1.1562-3.375 1.7344-5.9688 1.7344h-3.4844v7.0781h-5.25zm5.25 3.8125v5.7031h2.9219c1.0195 0 1.8047-0.25 2.3594-0.75 0.5625-0.5 0.84375-1.2031 0.84375-2.1094 0-0.91406-0.28125-1.6172-0.84375-2.1094-0.55469-0.48828-1.3398-0.73438-2.3594-0.73438z"/>
  </symbol>
  <symbol id="n" overflow="visible">
   <path d="m2.3594-15.312h4.8906v15.031c0 2.0508-0.49609 3.6172-1.4844 4.7031-0.98047 1.082-2.4062 1.625-4.2812 1.625h-2.4219v-3.2188h0.85938c0.92578 0 1.5625-0.21094 1.9062-0.625 0.35156-0.41797 0.53125-1.2461 0.53125-2.4844zm0-5.9688h4.8906v4h-4.8906z"/>
  </symbol>
  <symbol id="m" overflow="visible">
   <path d="m14.719-14.828v3.9844c-0.65625-0.45703-1.3242-0.79688-2-1.0156-0.66797-0.21875-1.3594-0.32812-2.0781-0.32812-1.3672 0-2.4336 0.40234-3.2031 1.2031-0.76172 0.79297-1.1406 1.9062-1.1406 3.3438 0 1.4297 0.37891 2.543 1.1406 3.3438 0.76953 0.79297 1.8359 1.1875 3.2031 1.1875 0.75781 0 1.4844-0.10938 2.1719-0.32812 0.6875-0.22656 1.3203-0.56641 1.9062-1.0156v4c-0.76172 0.28125-1.5391 0.48828-2.3281 0.625-0.78125 0.14453-1.5742 0.21875-2.375 0.21875-2.7617 0-4.9219-0.70703-6.4844-2.125-1.5547-1.4141-2.3281-3.3828-2.3281-5.9062 0-2.5312 0.77344-4.5039 2.3281-5.9219 1.5625-1.4141 3.7227-2.125 6.4844-2.125 0.80078 0 1.5938 0.074219 2.375 0.21875 0.78125 0.13672 1.5547 0.35156 2.3281 0.64062z"/>
  </symbol>
 </defs>
 <path d="M 202.66 131.88 C 211.488 131.896 219.961 128.399 226.211 122.165 C 232.461 115.931 235.977 107.466 235.98 98.634 C 235.984 89.806 232.48 81.337 226.238 75.095 C 219.996 68.853 211.527 65.349 202.699 65.353 C 193.867 65.357 185.402 68.872 179.168 75.123 C 172.934 81.373 169.438 89.846 169.453 98.674 C 169.453 107.482 172.95 115.928 179.18 122.154 C 185.407 128.384 193.852 131.88 202.66 131.88 L 202.66 131.88 Z M 202.66 78.79 L 202.66 78.794 C 207.918 78.778 212.965 80.853 216.695 84.56 C 220.422 88.267 222.523 93.302 222.539 98.56 C 222.554 103.817 220.48 108.869 216.773 112.595 C 213.066 116.321 208.031 118.427 202.773 118.442 C 197.515 118.454 192.464 116.38 188.738 112.673 C 185.012 108.966 182.906 103.931 182.89 98.673 C 182.879 93.415 184.953 88.368 188.66 84.638 C 192.367 80.911 197.402 78.81 202.66 78.794 L 202.66 78.79 Z" style="pointer-events: none;"/>
 <path d="M 470.51 187.99 C 479.338 188.006 487.811 184.51 494.061 178.275 C 500.311 172.037 503.827 163.572 503.831 154.744 C 503.834 145.916 500.331 137.447 494.088 131.205 C 487.846 124.963 479.377 121.459 470.549 121.463 C 461.717 121.467 453.256 124.982 447.018 131.233 C 440.784 137.483 437.288 145.956 437.303 154.783 C 437.303 163.588 440.8 172.037 447.03 178.263 C 453.257 184.49 461.702 187.99 470.51 187.99 L 470.51 187.99 Z M 470.51 134.9 C 475.772 134.873 480.826 136.935 484.569 140.634 C 488.307 144.338 490.421 149.373 490.448 154.63 C 490.471 159.892 488.405 164.946 484.698 168.685 C 480.995 172.42 475.96 174.529 470.698 174.549 C 465.436 174.568 460.386 172.498 456.651 168.791 C 452.92 165.084 450.815 160.041 450.799 154.783 C 450.784 149.533 452.85 144.494 456.545 140.767 C 460.241 137.04 465.264 134.931 470.51 134.9 L 470.51 134.9 Z" style="pointer-events: none;"/>
 <path d="M 226.3 306.6 C 217.491 306.569 209.03 310.034 202.773 316.237 C 196.515 322.44 192.976 330.87 192.925 339.678 C 192.878 348.486 196.324 356.955 202.511 363.225 C 208.699 369.494 217.12 373.057 225.929 373.123 C 234.738 373.193 243.214 369.768 249.499 363.592 C 255.784 357.42 259.363 349.006 259.452 340.197 C 259.527 331.341 256.07 322.818 249.851 316.513 C 243.632 310.212 235.156 306.642 226.3 306.599 L 226.3 306.6 Z M 226.3 359.69 L 226.3 359.686 C 221.031 359.717 215.964 357.647 212.222 353.932 C 208.484 350.221 206.374 345.17 206.363 339.901 C 206.355 334.632 208.445 329.573 212.171 325.846 C 215.898 322.12 220.952 320.03 226.226 320.038 C 231.496 320.049 236.546 322.159 240.257 325.897 C 243.972 329.639 246.042 334.706 246.011 339.975 C 245.995 345.198 243.913 350.202 240.222 353.897 C 236.527 357.588 231.523 359.67 226.3 359.686 L 226.3 359.69 Z" style="pointer-events: none;"/>
 <path d="M 497.34 374.75 C 488.535 374.734 480.082 378.211 473.836 384.418 C 467.59 390.629 464.063 399.059 464.023 407.863 C 463.984 416.668 467.438 425.133 473.625 431.394 C 479.816 437.656 488.238 441.21 497.043 441.273 C 505.848 441.339 514.32 437.91 520.602 431.738 C 526.883 425.562 530.458 417.152 530.547 408.347 C 530.637 399.476 527.18 390.937 520.946 384.628 C 514.708 378.319 506.212 374.761 497.341 374.749 L 497.34 374.75 Z M 497.34 427.84 L 497.34 427.836 C 492.074 427.852 487.024 425.77 483.293 422.055 C 479.562 418.34 477.465 413.297 477.461 408.032 C 477.453 402.766 479.543 397.716 483.266 393.997 C 486.988 390.274 492.039 388.184 497.301 388.188 C 502.566 388.192 507.613 390.294 511.328 394.02 C 515.043 397.751 517.121 402.805 517.109 408.067 C 517.109 413.313 515.023 418.34 511.316 422.047 C 507.609 425.754 502.581 427.836 497.339 427.836 L 497.34 427.84 Z" style="pointer-events: none;"/>
 <path d="M 497.34 343.34 C 476.07 343.324 455.465 350.754 439.102 364.34 L 267.352 189.73 C 278.832 178.234 287.016 163.867 291.04 148.125 L 380.642 165.766 C 379.747 170.946 379.279 176.188 379.24 181.446 C 379.498 212.462 395.424 241.247 421.564 257.946 C 447.709 274.641 480.521 276.985 508.771 264.173 C 537.021 251.364 556.876 225.134 561.541 194.466 C 566.205 163.798 555.041 132.853 531.877 112.224 C 508.709 91.595 476.682 84.083 446.76 92.255 C 416.834 100.426 393.072 123.177 383.612 152.716 L 293.561 134.907 C 296.158 110.559 288.877 86.184 273.346 67.251 C 257.814 48.318 235.338 36.407 210.948 34.192 C 186.561 31.981 162.303 39.645 143.616 55.473 C 124.932 71.301 113.378 93.965 111.55 118.383 C 109.722 142.805 117.768 166.938 133.89 185.371 C 150.011 203.805 172.855 215 197.3 216.445 L 207.546 277.148 C 176.394 283.648 150.866 305.886 140.155 335.855 C 129.444 365.824 135.096 399.207 155.073 423.98 C 175.05 448.753 206.475 461.351 238.03 457.238 C 269.589 453.12 296.733 432.886 309.69 403.82 L 406.682 423.758 C 406.201 427.468 405.959 431.211 405.955 434.957 C 406.014 459.18 415.69 482.391 432.853 499.488 C 450.017 516.582 473.267 526.164 497.494 526.125 C 521.721 526.086 544.939 516.429 562.049 499.277 C 579.158 482.125 588.756 458.882 588.737 434.656 C 588.718 410.433 579.081 387.203 561.944 370.082 C 544.807 352.957 521.573 343.34 497.346 343.34 L 497.34 343.34 Z M 430.141 242.88 L 430.141 241.65 C 430.141 231.469 434.18 221.709 441.371 214.504 C 448.562 207.301 458.32 203.246 468.5 203.231 L 472.027 203.231 C 482.183 203.247 491.918 207.286 499.097 214.469 C 506.277 221.649 510.316 231.383 510.331 241.535 L 510.331 242.879 C 498.433 250.731 484.491 254.918 470.233 254.918 C 455.979 254.918 442.038 250.731 430.139 242.879 L 430.141 242.88 Z M 470.239 107.98 L 470.235 107.98 C 489.583 107.957 508.153 115.574 521.911 129.179 C 535.665 142.781 543.489 161.269 543.681 180.613 C 543.873 199.957 536.415 218.593 522.935 232.468 C 520.794 220.515 514.525 209.698 505.22 201.898 C 495.919 194.097 484.169 189.816 472.029 189.796 L 468.502 189.796 C 456.35 189.827 444.592 194.12 435.283 201.929 C 425.97 209.734 419.693 220.562 417.541 232.523 C 404.033 218.652 396.557 200.007 396.74 180.648 C 396.919 161.285 404.751 142.785 418.517 129.171 C 432.287 115.558 450.876 107.941 470.236 107.98 L 470.239 107.98 Z M 202.669 198.753 C 188.419 198.769 174.478 194.605 162.571 186.773 L 162.571 185.539 C 162.571 175.359 166.614 165.598 173.805 158.394 C 180.996 151.191 190.754 147.136 200.934 147.124 L 204.403 147.124 C 214.555 147.124 224.29 151.151 231.469 158.323 C 238.652 165.495 242.692 175.221 242.707 185.37 L 242.707 186.772 C 230.82 194.592 216.898 198.76 202.668 198.752 L 202.669 198.753 Z M 129.196 125.284 C 129.153 100.827 141.282 77.952 161.551 64.268 C 181.817 50.58 207.567 47.877 230.235 57.053 C 252.907 66.229 269.524 86.08 274.563 110.014 C 279.602 133.944 272.407 158.815 255.364 176.354 C 253.223 164.393 246.946 153.569 237.63 145.768 C 228.317 137.967 216.556 133.69 204.403 133.682 L 200.876 133.682 C 188.724 133.713 176.97 138.006 167.657 145.815 C 158.344 153.624 152.067 164.452 149.915 176.409 C 136.622 162.714 129.188 144.374 129.196 125.284 L 129.196 125.284 Z M 186.204 428.074 L 186.204 426.785 L 186.204 426.789 C 186.204 416.598 190.251 406.828 197.458 399.625 C 204.661 392.418 214.431 388.371 224.622 388.371 L 228.149 388.371 C 238.294 388.402 248.012 392.449 255.18 399.625 C 262.348 406.805 266.383 416.531 266.395 426.676 L 266.395 428.074 C 254.497 435.926 240.555 440.113 226.301 440.113 C 212.043 440.113 198.102 435.926 186.203 428.074 L 186.204 428.074 Z M 278.997 417.66 C 276.821 405.754 270.544 394.988 261.255 387.234 C 251.966 379.476 240.251 375.222 228.15 375.211 L 224.623 375.211 C 212.459 375.231 200.689 379.516 191.365 387.328 C 182.044 395.137 175.756 405.969 173.607 417.941 C 160.111 404.05 152.646 385.398 152.834 366.035 C 153.017 346.672 160.841 328.168 174.6 314.539 C 188.358 300.914 206.94 293.269 226.303 293.269 C 245.666 293.269 264.248 300.914 278.006 314.539 C 291.764 328.168 299.584 346.672 299.772 366.035 C 299.955 385.398 292.49 404.051 278.999 417.941 L 278.997 417.66 Z M 314.278 391.058 C 322.02 363.546 316.411 333.996 299.126 311.23 C 281.841 288.468 254.884 275.128 226.302 275.195 L 220.7 275.195 L 210.9 216.285 C 227.65 214.762 243.646 208.617 257.103 198.531 L 429.473 373.701 C 419.98 384.252 413.075 396.865 409.313 410.549 L 314.278 391.058 Z M 457.238 496.168 L 457.238 494.938 C 457.254 484.762 461.3 475.008 468.488 467.809 C 475.675 460.61 485.426 456.551 495.601 456.52 L 499.128 456.52 C 509.276 456.535 519.003 460.578 526.175 467.758 C 533.347 474.941 537.374 484.676 537.374 494.824 L 537.374 496.167 C 525.476 504.019 511.534 508.202 497.28 508.202 C 483.022 508.202 469.081 504.019 457.182 496.167 L 457.238 496.168 Z M 550.031 485.754 L 550.031 485.75 C 547.906 473.805 541.648 462.988 532.351 455.188 C 523.058 447.387 511.316 443.102 499.183 443.079 L 495.601 443.079 C 483.441 443.11 471.675 447.399 462.355 455.208 C 453.035 463.017 446.746 473.845 444.585 485.81 C 431.089 471.919 423.624 453.267 423.812 433.904 C 423.996 414.541 431.82 396.037 445.578 382.408 C 459.336 368.783 477.918 361.138 497.281 361.138 C 516.644 361.138 535.222 368.783 548.98 382.408 C 562.738 396.037 570.562 414.541 570.75 433.904 C 570.934 453.267 563.469 471.92 549.977 485.81 L 550.031 485.754 Z" style="pointer-events: none;"/>
</svg>